<svg width="50" height="50" viewBox="0 0 50 50" fill="none" xmlns="http://www.w3.org/2000/svg">
<path fill-rule="evenodd" clip-rule="evenodd" d="M25 50C38.8071 50 50 38.8071 50 25C50 11.1929 38.8071 0 25 0C11.1929 0 0 11.1929 0 25C0 38.8071 11.1929 50 25 50ZM7.8957 12.25L24.4375 25.7403L40.9807 12.25H7.8957ZM7.875 15.8083L16.9499 23.2097L7.875 33.1708V15.8083ZM41 33.1708L31.9251 23.2097L41 15.8083V33.1708ZM24.4375 29.3153L29.7761 24.9611L40.9696 37.25H7.90536L19.0989 24.9611L24.4375 29.3153Z" fill="#D9C343"/>
</svg>
