<svg width="324" height="108" viewBox="0 0 324 108" xmlns="http://www.w3.org/2000/svg">
<path fill-rule="evenodd" clip-rule="evenodd" d="M5.17808 33.2877C10.1408 41.7952 11.4428 50.515 12.7187 59.0605C14.1054 68.3476 15.4613 77.4289 21.4521 85.8082C32.9552 101.898 56.5891 105.781 56.5891 105.781C56.5891 105.781 87.3184 111.142 104.671 103.932C114.105 100.012 119.115 96.572 126.493 89.5069C142.329 74.3431 149.055 38.0959 149.055 38.0959C152.211 32.1355 155.301 30.872 162.37 31.0685C169.423 30.8708 172.136 31.9859 175.285 37.9819C175.285 37.9819 181.995 74.4461 197.795 89.7007C205.157 96.8081 210.155 100.269 219.567 104.212C236.881 111.465 267.54 106.072 267.54 106.072C267.54 106.072 291.12 102.166 302.597 85.9799C308.574 77.5504 309.927 68.4148 311.31 59.0721C312.583 50.4754 313.882 41.7034 318.834 33.1449L324 28.3079V8.95986L311.084 5.98324C273.06 -1.9335 248.86 -1.4022 209.604 4.12286C200.624 5.38662 193.179 7.57108 186.079 9.65394C178.283 11.9414 170.904 14.1063 162.37 14.7945C153.768 14.1065 146.234 12.0038 138.273 9.78188C131.11 7.78258 123.601 5.6868 114.658 4.43836C75.3113 -1.05382 51.0563 -1.58195 12.9452 6.28768L0 9.24658V28.4795L5.17808 33.2877ZM31.8317 14.8533C25.0673 18.6054 20.8503 27.943 22.0333 28.1542C20.7834 28.1006 17.818 58.202 26.5907 73.6671C32.8379 84.68 50.0003 96.0724 50.0003 96.0724C50.0003 96.0724 84.6288 104.835 104.157 96.0724C116.573 90.5009 129.222 71.2154 128.964 69.8162C128.901 69.4726 129.428 67.9426 130.231 65.6129C132.697 58.457 137.765 43.7556 136.301 32.7075C135.437 26.1857 130.134 22.0156 124.072 17.3039C114.801 10.0962 106.381 9.94537 95.5535 9.75134C93.6133 9.71658 91.5958 9.68042 89.4822 9.60204C86.9436 9.50789 84.6348 9.39774 82.4603 9.29401C74.2397 8.90183 67.9373 8.60116 58.3859 9.60204C55.8975 9.86279 53.6175 10.0069 51.4641 10.1431C44.5195 10.5821 38.8904 10.9379 31.8317 14.8533ZM302.859 28.1542C304.042 27.943 299.825 18.6054 293.061 14.8533C286.002 10.9379 280.373 10.5821 273.428 10.1431C271.275 10.0069 268.995 9.86279 266.507 9.60204C256.955 8.60116 250.653 8.90183 242.432 9.29401C240.258 9.39774 237.949 9.50789 235.41 9.60204C233.297 9.68042 231.279 9.71658 229.339 9.75134C218.511 9.94537 210.092 10.0962 200.82 17.3039C194.759 22.0156 189.455 26.1857 188.591 32.7075C187.128 43.7556 192.195 58.457 194.662 65.6129C195.465 67.9426 195.992 69.4726 195.929 69.8162C195.67 71.2154 208.319 90.5009 220.736 96.0724C240.264 104.835 274.892 96.0724 274.892 96.0724C274.892 96.0724 292.055 84.68 298.302 73.6671C307.075 58.202 304.109 28.1006 302.859 28.1542Z"/>
</svg>
