<svg width="75" height="24" viewBox="0 0 75 24" fill="none" xmlns="http://www.w3.org/2000/svg">
<path fill-rule="evenodd" clip-rule="evenodd" d="M1.19863 7.39726C2.34741 9.28783 2.64879 11.2256 2.94415 13.1246C3.26513 15.1884 3.57901 17.2064 4.96575 19.0685C7.62851 22.6439 13.0993 23.5069 13.0993 23.5069C13.0993 23.5069 20.2126 24.6981 24.2295 23.0959C26.4132 22.2249 27.5729 21.4604 29.2808 19.8904C32.9466 16.5207 34.5034 8.46575 34.5034 8.46575C35.2339 7.14123 35.9493 6.86044 37.5856 6.90411C39.2182 6.86018 39.8463 7.10797 40.5752 8.44042C40.5752 8.44042 42.1284 16.5436 45.7859 19.9335C47.49 21.5129 48.647 22.2819 50.8257 23.1582C54.8335 24.77 61.9305 23.5716 61.9305 23.5716C61.9305 23.5716 67.3889 22.7035 70.0456 19.1066C71.4291 17.2334 71.7423 15.2033 72.0626 13.1271C72.3572 11.2168 72.6579 9.26742 73.8041 7.36553L75 6.29064V1.99108L72.0103 1.32961C63.2083 -0.429667 57.6065 -0.311601 48.5194 0.91619C46.4408 1.19703 44.7173 1.68246 43.074 2.14532C41.2692 2.65364 39.5611 3.13473 37.5856 3.28767C35.5944 3.13478 33.8505 2.66751 32.0077 2.17375C30.3496 1.72946 28.6114 1.26373 26.5411 0.986302C17.4332 -0.234182 11.8186 -0.351545 2.99658 1.39726L0 2.0548V6.32877L1.19863 7.39726ZM7.36845 3.30073C5.80262 4.13453 4.82647 6.20956 5.1003 6.25649C4.81098 6.24458 4.12455 12.9338 6.15527 16.3705C7.60137 18.8178 11.5742 21.3494 11.5742 21.3494C11.5742 21.3494 19.59 23.2967 24.1104 21.3494C26.9845 20.1113 29.9126 15.8257 29.8528 15.5147C29.8381 15.4384 29.9602 15.0984 30.146 14.5806C30.717 12.9905 31.89 9.72347 31.5512 7.26833C31.3512 5.81905 30.1235 4.89236 28.7205 3.8453C26.5742 2.24361 24.6253 2.21008 22.1189 2.16697H22.1189C21.6697 2.15924 21.2027 2.15121 20.7135 2.13379C20.1259 2.11286 19.5914 2.08839 19.0881 2.06534L19.088 2.06533C17.1851 1.97818 15.7262 1.91137 13.5152 2.13379C12.9392 2.19173 12.4115 2.22376 11.913 2.25401L11.913 2.25401C10.3054 2.35157 9.00242 2.43065 7.36845 3.30073ZM70.1063 6.25649C70.3802 6.20956 69.404 4.13453 67.8382 3.30073C66.2042 2.43065 64.9012 2.35157 63.2936 2.25401C62.7952 2.22376 62.2674 2.19173 61.6914 2.13379C59.4804 1.91137 58.0215 1.97818 56.1186 2.06533C55.6152 2.08839 55.0808 2.11286 54.4932 2.13379C54.0039 2.15121 53.5369 2.15924 53.0877 2.16697C50.5813 2.21008 48.6324 2.24361 46.4862 3.8453C45.0831 4.89236 43.8554 5.81905 43.6554 7.26833C43.3166 9.72347 44.4896 12.9905 45.0606 14.5806C45.2465 15.0984 45.3685 15.4384 45.3538 15.5147C45.294 15.8257 48.2221 20.1113 51.0962 21.3494C55.6166 23.2967 63.6325 21.3494 63.6325 21.3494C63.6325 21.3494 67.6053 18.8178 69.0514 16.3705C71.0821 12.9338 70.3956 6.24458 70.1063 6.25649Z" fill="#FAFAFF"/>
</svg>
