<svg width="50" height="50" viewBox="0 0 50 50" fill="none" xmlns="http://www.w3.org/2000/svg">
<circle cx="25" cy="25" r="25" fill="#BF8E7B"/>
<path d="M12.0659 9.62964L7.77783 15.029V16.541C7.77783 20.8601 14.7811 20.8601 14.7811 16.541C14.7811 20.8601 21.4984 20.8601 21.4984 16.541C21.4984 20.8601 28.5017 20.8601 28.5017 16.541C28.5017 20.8601 35.2197 20.8601 35.2197 16.541C35.2197 20.8601 42.2223 20.8601 42.2223 16.541V15.029L37.9349 9.62964H12.0659ZM14.7105 19.1326C14.4959 19.4207 14.2813 19.6362 14.0673 19.8524C13.2816 20.5003 12.2805 20.7883 11.2802 20.7883C10.9942 20.7883 10.7083 20.7883 10.4944 20.7165V40.3704H39.4372V20.7165C39.1513 20.7883 38.9366 20.7883 38.6507 20.7883C37.6504 20.7883 36.65 20.5003 35.8635 19.8524C35.6496 19.6362 35.435 19.42 35.2211 19.1326C35.0058 19.4207 34.8625 19.6362 34.5773 19.8524C33.7908 20.5003 32.7911 20.7883 31.8614 20.7883C30.8617 20.7883 29.8607 20.5003 29.1455 19.8524C28.9316 19.6362 28.717 19.42 28.5024 19.1326C28.2878 19.4207 28.0738 19.6362 27.8592 19.8524C26.9309 20.5721 25.9298 20.8601 24.9294 20.8601C23.9291 20.8601 22.9287 20.5721 22.1423 19.9242C21.9276 19.708 21.7137 19.4925 21.4991 19.2045C21.2845 19.4925 21.1419 19.7087 20.856 19.9242C20.0695 20.5721 19.0692 20.8601 18.1401 20.8601C17.1397 20.8601 16.1394 20.5721 15.4249 19.9242C15.2103 19.708 14.9964 19.4925 14.7818 19.2045L14.7105 19.1326V19.1326ZM18.5693 22.0841C20.2128 22.0841 20.9273 22.5165 21.785 24.244H28.1451C28.5031 22.5165 29.2175 22.0841 31.3616 22.0841C33.0044 22.0841 35.7915 23.6679 36.2208 25.8997L38.3648 34.3231C38.7933 36.483 37.5791 38.0661 35.435 38.0661C33.9341 38.0661 32.0047 37.0583 30.7191 34.3231H19.2838C17.9975 37.1302 16.0681 38.0661 14.5672 38.0661C12.4231 38.0661 11.2082 36.4823 11.6374 34.3231L13.7814 25.8997C14.2099 23.6679 16.9971 22.0841 18.6406 22.0841H18.5693V22.0841ZM24.9294 25.0356L19.8556 30.435H21.9996V33.1702H27.9312V30.5075H30.0746L24.9294 25.0356Z" fill="#C8C1C4"/>
</svg>
