<svg width="100" height="45" viewBox="0 0 100 45" fill="none" xmlns="http://www.w3.org/2000/svg">
<path fill-rule="evenodd" clip-rule="evenodd" d="M34.6698 18.9151C39.7498 18.9151 43.8679 14.6808 43.8679 9.45757C43.8679 4.2343 39.7498 0 34.6698 0C32.4035 0 30.3286 0.842773 28.7254 2.24015C26.3517 1.44038 23.761 1.04047 20.9531 1.0404C14.6999 1.04047 9.63186 3.18169 5.74887 7.46408C1.91628 11.7466 -4.84081e-06 16.8804 0 22.8654C-4.84081e-06 29.2633 1.81542 34.5519 5.44629 38.7311C9.12757 42.9104 14.2461 45 20.8018 45C25.9455 45 30.4589 43.8907 34.3419 41.6721C38.2249 39.4535 43.4442 35.0163 50 28.3604L55.8962 22.8654C59.88 19.4085 62.3297 16.6224 65.2042 14.6617C68.0786 12.6495 70.5496 11.2564 72.6172 10.4824C74.6847 9.65695 76.828 9.24419 79.0469 9.24413C82.9802 9.24419 86.132 10.5857 88.5023 13.2686C90.9227 15.9 92.133 19.2538 92.1331 23.3298C92.133 27.0447 90.9227 30.2179 88.5023 32.8492C86.0816 35.429 82.7281 36.7189 78.4417 36.7189C76.1771 36.7189 73.9015 36.3026 71.6149 35.47C71.6698 35.0523 71.6981 34.626 71.6981 34.1928C71.6981 28.9695 67.58 24.7352 62.5 24.7352C57.42 24.7352 53.3019 28.9695 53.3019 34.1928C53.3019 39.416 57.42 43.6503 62.5 43.6503C64.1545 43.6503 65.7069 43.2012 67.0483 42.4151C70.6368 44.1384 74.712 45 79.2738 45C83.3585 45 86.9641 44.0971 90.0908 42.2912C93.2677 40.4854 95.7135 37.8282 97.4281 34.3197C99.1426 30.8112 99.9999 26.9931 100 22.8654C99.9999 16.8288 98.0584 11.695 94.1755 7.46408C90.3428 3.18169 85.3 1.04047 79.0469 1.0404C76.0715 1.04047 73.3232 1.50483 70.8018 2.43349C68.2803 3.36228 65.179 5.21972 61.4977 8.00583C57.8164 10.7405 53.9838 14.0684 50 17.9896L45.0832 22.788C39.7377 28.154 35.3504 31.8173 31.9213 33.7779C28.4921 35.7386 24.9621 36.7189 21.3313 36.7189C18.5577 36.7189 16.238 36.1772 14.3722 35.0936C12.5567 34.0101 11.0186 32.4881 9.75794 30.5274C8.49721 28.5668 7.86686 26.1676 7.86687 23.3298C7.86686 19.2538 9.07714 15.9 11.4977 13.2686C13.9183 10.6373 16.9692 9.32158 20.6505 9.32152C22.3487 9.32156 23.959 9.5128 25.4814 9.89523C25.7038 14.9153 29.7325 18.9151 34.6698 18.9151ZM34.6698 14.1864C37.2098 14.1864 39.2689 12.0692 39.2689 9.45757C39.2689 6.84593 37.2098 4.72879 34.6698 4.72879C32.1298 4.72879 30.0708 6.84593 30.0708 9.45757C30.0708 12.0692 32.1298 14.1864 34.6698 14.1864ZM67.0991 34.1928C67.0991 36.8044 65.04 38.9216 62.5 38.9216C59.96 38.9216 57.9009 36.8044 57.9009 34.1928C57.9009 31.5811 59.96 29.464 62.5 29.464C65.04 29.464 67.0991 31.5811 67.0991 34.1928Z" fill="url(#paint0_linear)"/>
<defs>
<linearGradient id="paint0_linear" x1="2.87721e-07" y1="23" x2="100" y2="23" gradientUnits="userSpaceOnUse">
<stop stop-color="#518FB6"/>
<stop offset="0.296875" stop-color="#D9C343"/>
<stop offset="0.666667" stop-color="#BF8E7B"/>
<stop offset="1" stop-color="#AD73BB"/>
</linearGradient>
</defs>
</svg>
