<svg width="891" height="498" viewBox="0 0 891 498" fill="none" xmlns="http://www.w3.org/2000/svg">
<g filter="url(#filter0_d)">
<path d="M631.56 350.283C651.755 351.531 657.975 375.304 658.561 387.035L632.993 388.006L631.56 350.283Z" fill="black"/>
<path d="M218.186 308.059L638.813 386.525L619.038 274.784L169.355 148.062C146.651 141.813 125.966 139.344 107.011 154.877C92.905 166.437 63.3785 204.435 53.8828 210.684C53.1439 210.961 52.4026 211.248 51.6588 211.546C52.1726 211.621 52.926 211.314 53.8828 210.684C102.757 192.377 140.67 220.789 147.642 241.061L216.26 257.343L218.186 308.059Z" fill="#FAFAFF"/>
<path d="M884.897 411.598L861.192 395.288C850.14 391.651 824.519 384.593 810.449 385.463C796.378 386.333 657.098 377.996 589.217 373.718C575.622 373.115 545.97 371.163 536.118 368.18C529.035 366.034 366.326 334.497 218.137 305.962L215.574 238.48L147.642 241.061C139.85 220.09 112.208 183.39 63.9784 204.363C15.7487 225.335 7.84411 266.239 9.92051 284.069C2.35701 297.117 125.445 363.91 187.934 395.676L117.768 415.971C112.226 421.078 107.327 432.821 132.072 438.933C156.818 445.045 364.482 461.307 465.221 468.674L884.897 411.598Z" fill="black"/>
<path d="M542.431 247.053L575.327 222.922C589.827 162.627 618.045 32.0405 617.222 28.0422C616.398 24.044 591.822 15.0154 579.637 11.001C545.996 72.0227 477.309 196.806 471.68 207.765C466.052 218.725 465.873 239.047 466.487 247.839L542.431 247.053Z" fill="#FAFAFF"/>
<path d="M628.955 336.95L680.069 312.342C680.302 307.436 680.311 292.185 677.182 280.551C674.054 268.917 663.428 272.98 655.668 266.677C642.999 256.388 642.063 251.076 628.116 237.502C614.168 223.928 566.735 213.729 531.188 227.332C519.373 231.854 503.86 243.012 500.322 245.614C499.061 245.75 499.116 245.982 499.583 246.162C499.583 246.162 499.842 245.966 500.322 245.614C501.744 245.46 504.838 245.428 510.9 245.732C522.339 246.305 540.382 255.075 548.368 270.753C554.036 281.88 551.048 297.095 552.093 302.512C552.929 306.846 565.107 313.631 571.092 316.482L628.955 336.95Z" fill="#FAFAFF"/>
<path d="M208.73 191.729C208.73 191.729 199.826 173.936 190.139 166.411C180.118 158.625 172.261 157.362 159.887 154.548C138.484 149.68 112.547 153.268 104.576 157.068C92.2331 168.365 84.303 177.926 70.3183 194.468C92.7926 176.153 133.242 182.423 148.135 187.734L208.73 191.729Z" fill="black"/>
<path d="M431.984 223.545C433.684 220.402 443.632 211.937 470.402 218.308L471.118 237.169L431.984 223.545Z" fill="#FAFAFF"/>
</g>
<defs>
<filter id="filter0_d" x="2.39185" y="9.59961" width="888.065" height="488.092" filterUnits="userSpaceOnUse" color-interpolation-filters="sRGB">
<feFlood flood-opacity="0" result="BackgroundImageFix"/>
<feColorMatrix in="SourceAlpha" type="matrix" values="0 0 0 0 0 0 0 0 0 0 0 0 0 0 0 0 0 0 127 0"/>
<feOffset dy="8"/>
<feGaussianBlur stdDeviation="2"/>
<feColorMatrix type="matrix" values="0 0 0 0 0 0 0 0 0 0 0 0 0 0 0 0 0 0 0.25 0"/>
<feBlend mode="normal" in2="BackgroundImageFix" result="effect1_dropShadow"/>
<feBlend mode="normal" in="SourceGraphic" in2="effect1_dropShadow" result="shape"/>
</filter>
</defs>
</svg>
