<svg width="401" height="236" viewBox="0 0 401 236" fill="none" xmlns="http://www.w3.org/2000/svg">
<g filter="url(#filter0_d)">
<path fill-rule="evenodd" clip-rule="evenodd" d="M4 104.847V120.919L86.5832 121.022V104.924L4 104.847ZM52.9248 74.9929V91.0901L97.8199 91.3472V75.2243L52.9248 74.9929ZM53.2606 135.679V151.802L97.8199 151.545V135.448L53.2606 135.679ZM86.5832 1.19243C162.244 -7.34476 192.286 32.204 208.275 48.4299L208.508 48.3784C230.465 45.0613 324.801 30.5841 397 112.742C324.491 196.288 231.265 182.762 208.275 179.445C192.286 195.671 162.244 235.348 86.5832 226.811C115.334 213.954 133.906 189.319 140.158 160.956C134.578 158.693 121.895 153.319 116.729 150.85L116.496 78.7215C121.74 76.15 134.759 69.9014 140.519 67.51C135.586 41.1527 122.902 18.344 86.5832 1.19243Z" fill="#FF8428"/>
</g>
<defs>
<filter id="filter0_d" x="0" y="0" width="401" height="236" filterUnits="userSpaceOnUse" color-interpolation-filters="sRGB">
<feFlood flood-opacity="0" result="BackgroundImageFix"/>
<feColorMatrix in="SourceAlpha" type="matrix" values="0 0 0 0 0 0 0 0 0 0 0 0 0 0 0 0 0 0 127 0"/>
<feOffset dy="4"/>
<feGaussianBlur stdDeviation="2"/>
<feColorMatrix type="matrix" values="0 0 0 0 0 0 0 0 0 0 0 0 0 0 0 0 0 0 0.25 0"/>
<feBlend mode="normal" in2="BackgroundImageFix" result="effect1_dropShadow"/>
<feBlend mode="normal" in="SourceGraphic" in2="effect1_dropShadow" result="shape"/>
</filter>
</defs>
</svg>
